<?xml version="1.0" encoding="UTF-8" standalone="no"?>
<svg width="139px" height="106px" viewBox="0 0 139 106" version="1.1" xmlns="http://www.w3.org/2000/svg" xmlns:xlink="http://www.w3.org/1999/xlink">
    <!-- Generator: Sketch 50.2 (55047) - http://www.bohemiancoding.com/sketch -->
    <title>Logo-TMB</title>
    <desc>Created with Sketch.</desc>
    <defs></defs>
    <g id="Page-1" stroke="none" stroke-width="1" fill="none" fill-rule="evenodd">
        <g id="Logo-TMB" fill-rule="nonzero">
            <path d="M1.8,72.8 C1.8,72.8 -6.8,42.9 30.7,17.1 C53.9,1.1 90.3,-4 113,5.8 C133.7,14.7 143.7,31.7 136.8,54.3 C129.9,77 94.8,105.2 59.2,105.2 C23.6,105.2 12.2,86.1 12.2,69.1 C12.2,36.9 50.8,19.4 50.8,19.4 C1.3,34.3 1.8,72.8 1.8,72.8" id="Shape" fill="#E30613"></path>
            <polygon id="Shape" fill="#FFFFFF" points="35.4 46.2 42.2 46.2 36.5 66.4 45 66.4 50.6 46.2 57.4 46.2 59.2 39.6 37.2 39.6"></polygon>
            <g id="Group" transform="translate(54.000000, 39.000000)" fill="#FFFFFF">
                <path d="M0.5,27.4 L8.5,27.4 L13.1,11 C13.5,9.5 13.6,9.1 14,7.4 C13.9,10.2 13.9,10.2 13.8,12.4 L13.7,27.4 L20,27.4 L28.9,11.5 C30,9.6 30.2,9.2 31.2,7.2 C30.4,9.5 30.2,10 29.6,11.9 L25.3,27.4 L33.3,27.4 L40.8,0.7 L28.7,0.7 L22.5,12.2 C21.2,14.8 20.8,15.5 19.4,18.8 C19.7,16.4 19.8,15.8 19.9,13.1 L20.1,0.8 L8,0.8 L0.5,27.4 Z" id="Shape"></path>
                <path d="M54.3,16.4 C55.1,16.4 57.3,16.6 56.6,19.1 C56.4,19.8 56,20.4 55.4,20.8 C54.6,21.5 53.8,21.6 53,21.6 L47.7,21.6 L49.2,16.4 L54.3,16.4 Z M56.9,6.3 C57.7,6.3 59.4,6.4 58.8,8.6 C58.2,10.8 56.2,10.8 55.4,10.8 L50.7,10.8 L52,6.3 L56.9,6.3 Z M37.7,27.4 L54.1,27.4 C56.2,27.3 59,27.2 61.6,25.2 C63.3,23.8 64.5,21.8 65.1,19.8 C65.5,18.5 65.7,16.7 64.6,15.3 C63.8,14.2 62.9,14 61.9,13.7 C62.9,13.3 63.7,13 64.6,12.3 C66,11.2 67.3,9.6 67.8,7.6 C68.3,5.9 68.2,4.1 67.3,3 C65.8,1 62.8,0.9 61.1,0.8 L45.3,0.8 L37.7,27.4 Z" id="Shape"></path>
            </g>
        </g>
    </g>
</svg>